<?xml version="1.0" encoding="utf-8"?>
<!-- Generator: Adobe Illustrator 16.0.4, SVG Export Plug-In . SVG Version: 6.00 Build 0)  -->
<!DOCTYPE svg PUBLIC "-//W3C//DTD SVG 1.1//EN" "http://www.w3.org/Graphics/SVG/1.1/DTD/svg11.dtd">
<svg version="1.1" id="Layer_1" xmlns="http://www.w3.org/2000/svg" xmlns:xlink="http://www.w3.org/1999/xlink" x="0px" y="0px"
	 width="39px" height="47.314px" viewBox="0 0 39 47.314" enable-background="new 0 0 39 47.314" xml:space="preserve">
<g>
	<defs>
		<path id="SVGID_1_" d="M1.072,19.601c0-10.256,8.297-18.6,18.5-18.6s18.5,8.344,18.5,18.6c0,4.707-1.748,9.012-4.598,12.291
			l-0.27,0.271c-0.363,0.398-0.742,0.779-1.141,1.145L19.548,45.894L5.697,31.892C2.82,28.612,1.072,24.308,1.072,19.601z"/>
	</defs>
	<clipPath id="SVGID_2_">
		<use xlink:href="#SVGID_1_"  overflow="visible"/>
	</clipPath>
	<g clip-path="url(#SVGID_2_)">
		<defs>
			<rect id="SVGID_3_" x="-856.928" y="-656.509" width="1440" height="1024.001"/>
		</defs>
		<clipPath id="SVGID_4_">
			<use xlink:href="#SVGID_3_"  overflow="visible"/>
		</clipPath>
		<g clip-path="url(#SVGID_4_)" enable-background="new    ">
			<g>
				<defs>
					<rect id="SVGID_5_" x="1.072" y="0.491" width="37" height="46"/>
				</defs>
				<clipPath id="SVGID_6_">
					<use xlink:href="#SVGID_5_"  overflow="visible"/>
				</clipPath>
				<g clip-path="url(#SVGID_6_)">
					<defs>
						<rect id="SVGID_7_" x="-4.067" y="-4.093" width="47.277" height="55.081"/>
					</defs>
					<clipPath id="SVGID_8_">
						<use xlink:href="#SVGID_7_"  overflow="visible"/>
					</clipPath>
					<g clip-path="url(#SVGID_8_)">
						<defs>
							<rect id="SVGID_9_" x="1.072" y="0.491" width="37" height="46"/>
						</defs>
						<clipPath id="SVGID_10_">
							<use xlink:href="#SVGID_9_"  overflow="visible"/>
						</clipPath>
						<rect x="-9.067" y="-9.093" clip-path="url(#SVGID_10_)" fill="#323232" width="57.277" height="65.081"/>
					</g>
				</g>
			</g>
		</g>
	</g>
</g>
<g>
	<defs>
		<polygon id="SVGID_11_" points="26.732,38.671 19.548,45.894 12.402,38.671 		"/>
	</defs>
	<clipPath id="SVGID_12_">
		<use xlink:href="#SVGID_11_"  overflow="visible"/>
	</clipPath>
	<g clip-path="url(#SVGID_12_)">
		<defs>
			<rect id="SVGID_13_" x="-856.928" y="-656.509" width="1440" height="1024.001"/>
		</defs>
		<clipPath id="SVGID_14_">
			<use xlink:href="#SVGID_13_"  overflow="visible"/>
		</clipPath>
		<g clip-path="url(#SVGID_14_)" enable-background="new    ">
			<g>
				<defs>
					<rect id="SVGID_15_" x="12.072" y="38.491" width="15" height="8"/>
				</defs>
				<clipPath id="SVGID_16_">
					<use xlink:href="#SVGID_15_"  overflow="visible"/>
				</clipPath>
				<g clip-path="url(#SVGID_16_)">
					<defs>
						<rect id="SVGID_17_" x="-9.995" y="33.577" width="58.584" height="20.727"/>
					</defs>
					<clipPath id="SVGID_18_">
						<use xlink:href="#SVGID_17_"  overflow="visible"/>
					</clipPath>
					<g clip-path="url(#SVGID_18_)">
						<defs>
							<rect id="SVGID_19_" x="12.072" y="38.491" width="15" height="8"/>
						</defs>
						<clipPath id="SVGID_20_">
							<use xlink:href="#SVGID_19_"  overflow="visible"/>
						</clipPath>
						<rect x="-14.995" y="28.577" clip-path="url(#SVGID_20_)" fill="#7D7D7D" width="68.584" height="30.727"/>
					</g>
				</g>
			</g>
		</g>
	</g>
</g>
<g>
	<defs>
		<ellipse id="SVGID_21_" cx="19.586" cy="18.979" rx="11.829" ry="11.738"/>
	</defs>
	<clipPath id="SVGID_22_">
		<use xlink:href="#SVGID_21_"  overflow="visible"/>
	</clipPath>
	<g clip-path="url(#SVGID_22_)">
		<defs>
			<rect id="SVGID_23_" x="-856.928" y="-656.509" width="1440" height="1024.001"/>
		</defs>
		<clipPath id="SVGID_24_">
			<use xlink:href="#SVGID_23_"  overflow="visible"/>
		</clipPath>
		<rect x="2.757" y="2.243" clip-path="url(#SVGID_24_)" fill="#FFFFFF" width="33.658" height="33.475"/>
	</g>
</g>
<g>
	<defs>
		<rect id="SVGID_25_" x="7.154" y="7.222" width="6.17" height="6.125"/>
	</defs>
	<clipPath id="SVGID_26_">
		<use xlink:href="#SVGID_25_"  overflow="visible"/>
	</clipPath>
	<g clip-path="url(#SVGID_26_)">
		<defs>
			<rect id="SVGID_27_" x="-856.928" y="-656.509" width="1440" height="1024.001"/>
		</defs>
		<clipPath id="SVGID_28_">
			<use xlink:href="#SVGID_27_"  overflow="visible"/>
		</clipPath>
		<rect x="2.154" y="2.222" clip-path="url(#SVGID_28_)" fill="#323232" width="16.17" height="16.125"/>
	</g>
</g>
<g>
	<defs>
		<rect id="SVGID_29_" x="7.154" y="19.47" width="6.17" height="6.123"/>
	</defs>
	<clipPath id="SVGID_30_">
		<use xlink:href="#SVGID_29_"  overflow="visible"/>
	</clipPath>
	<g clip-path="url(#SVGID_30_)">
		<defs>
			<rect id="SVGID_31_" x="-856.928" y="-656.509" width="1440" height="1024.001"/>
		</defs>
		<clipPath id="SVGID_32_">
			<use xlink:href="#SVGID_31_"  overflow="visible"/>
		</clipPath>
		<rect x="2.154" y="14.47" clip-path="url(#SVGID_32_)" fill="#323232" width="16.17" height="16.123"/>
	</g>
</g>
<g>
	<defs>
		<rect id="SVGID_33_" x="13.324" y="13.345" width="6.172" height="6.125"/>
	</defs>
	<clipPath id="SVGID_34_">
		<use xlink:href="#SVGID_33_"  overflow="visible"/>
	</clipPath>
	<g clip-path="url(#SVGID_34_)">
		<defs>
			<rect id="SVGID_35_" x="-856.928" y="-656.509" width="1440" height="1024.001"/>
		</defs>
		<clipPath id="SVGID_36_">
			<use xlink:href="#SVGID_35_"  overflow="visible"/>
		</clipPath>
		<rect x="8.324" y="8.345" clip-path="url(#SVGID_36_)" fill="#323232" width="16.172" height="16.125"/>
	</g>
</g>
<g>
	<defs>
		<rect id="SVGID_37_" x="13.324" y="25.593" width="6.172" height="6.123"/>
	</defs>
	<clipPath id="SVGID_38_">
		<use xlink:href="#SVGID_37_"  overflow="visible"/>
	</clipPath>
	<g clip-path="url(#SVGID_38_)">
		<defs>
			<rect id="SVGID_39_" x="-856.928" y="-656.509" width="1440" height="1024.001"/>
		</defs>
		<clipPath id="SVGID_40_">
			<use xlink:href="#SVGID_39_"  overflow="visible"/>
		</clipPath>
		<rect x="8.324" y="20.593" clip-path="url(#SVGID_40_)" fill="#323232" width="16.172" height="16.123"/>
	</g>
</g>
<g>
	<defs>
		<rect id="SVGID_41_" x="19.496" y="7.222" width="6.172" height="6.125"/>
	</defs>
	<clipPath id="SVGID_42_">
		<use xlink:href="#SVGID_41_"  overflow="visible"/>
	</clipPath>
	<g clip-path="url(#SVGID_42_)">
		<defs>
			<rect id="SVGID_43_" x="-856.928" y="-656.509" width="1440" height="1024.001"/>
		</defs>
		<clipPath id="SVGID_44_">
			<use xlink:href="#SVGID_43_"  overflow="visible"/>
		</clipPath>
		<rect x="14.496" y="2.222" clip-path="url(#SVGID_44_)" fill="#323232" width="16.172" height="16.125"/>
	</g>
</g>
<g>
	<defs>
		<rect id="SVGID_45_" x="19.496" y="19.47" width="6.172" height="6.123"/>
	</defs>
	<clipPath id="SVGID_46_">
		<use xlink:href="#SVGID_45_"  overflow="visible"/>
	</clipPath>
	<g clip-path="url(#SVGID_46_)">
		<defs>
			<rect id="SVGID_47_" x="-856.928" y="-656.509" width="1440" height="1024.001"/>
		</defs>
		<clipPath id="SVGID_48_">
			<use xlink:href="#SVGID_47_"  overflow="visible"/>
		</clipPath>
		<rect x="14.496" y="14.47" clip-path="url(#SVGID_48_)" fill="#323232" width="16.172" height="16.123"/>
	</g>
</g>
<g>
	<defs>
		<rect id="SVGID_49_" x="25.667" y="13.345" width="6.172" height="6.125"/>
	</defs>
	<clipPath id="SVGID_50_">
		<use xlink:href="#SVGID_49_"  overflow="visible"/>
	</clipPath>
	<g clip-path="url(#SVGID_50_)">
		<defs>
			<rect id="SVGID_51_" x="-856.928" y="-656.509" width="1440" height="1024.001"/>
		</defs>
		<clipPath id="SVGID_52_">
			<use xlink:href="#SVGID_51_"  overflow="visible"/>
		</clipPath>
		<rect x="20.667" y="8.345" clip-path="url(#SVGID_52_)" fill="#323232" width="16.172" height="16.125"/>
	</g>
</g>
<g>
	<defs>
		<rect id="SVGID_53_" x="25.667" y="25.593" width="6.172" height="6.123"/>
	</defs>
	<clipPath id="SVGID_54_">
		<use xlink:href="#SVGID_53_"  overflow="visible"/>
	</clipPath>
	<g clip-path="url(#SVGID_54_)">
		<defs>
			<rect id="SVGID_55_" x="-856.928" y="-656.509" width="1440" height="1024.001"/>
		</defs>
		<clipPath id="SVGID_56_">
			<use xlink:href="#SVGID_55_"  overflow="visible"/>
		</clipPath>
		<rect x="20.667" y="20.593" clip-path="url(#SVGID_56_)" fill="#323232" width="16.172" height="16.123"/>
	</g>
</g>
<g>
	<path fill="#FFFFFF" d="M19.468,47.314L4.91,32.594C1.726,28.968-0.004,24.369-0.004,19.6c0-10.807,8.748-19.6,19.5-19.6
		c10.752,0,19.5,8.792,19.5,19.6c0,4.758-1.72,9.355-4.843,12.947l-0.314,0.32c-0.352,0.387-0.756,0.792-1.171,1.175L19.468,47.314z
		 M19.496,2c-9.649,0-17.5,7.895-17.5,17.6c0,4.284,1.554,8.415,4.377,11.631l13.1,13.243l11.809-11.873
		c0.404-0.374,0.767-0.738,1.108-1.113l0.299-0.302c2.762-3.179,4.308-7.311,4.308-11.586C36.996,9.895,29.145,2,19.496,2z"/>
</g>
<ellipse fill="none" stroke="#FFFFFF" stroke-width="0.5" stroke-miterlimit="10" cx="19.586" cy="18.98" rx="12.068" ry="11.978"/>
</svg>
