<?xml version="1.0" encoding="utf-8"?>
<!-- Generator: Adobe Illustrator 16.0.4, SVG Export Plug-In . SVG Version: 6.00 Build 0)  -->
<!DOCTYPE svg PUBLIC "-//W3C//DTD SVG 1.1//EN" "http://www.w3.org/Graphics/SVG/1.1/DTD/svg11.dtd">
<svg version="1.1" id="Layer_1" xmlns="http://www.w3.org/2000/svg" xmlns:xlink="http://www.w3.org/1999/xlink" x="0px" y="0px"
	 width="39px" height="45.981px" viewBox="0 0 39 45.981" enable-background="new 0 0 39 45.981" xml:space="preserve">
<g>
	<defs>
		<path id="SVGID_1_" d="M0.913,19.688c0-10.256,8.297-18.6,18.5-18.6c10.202,0,18.5,8.344,18.5,18.6
			c0,4.707-1.748,9.012-4.598,12.291l-0.27,0.271c-0.363,0.398-0.744,0.779-1.141,1.145L19.388,45.981L5.538,31.979
			C2.661,28.7,0.913,24.395,0.913,19.688z"/>
	</defs>
	<clipPath id="SVGID_2_">
		<use xlink:href="#SVGID_1_"  overflow="visible"/>
	</clipPath>
	<g clip-path="url(#SVGID_2_)">
		<defs>
			<rect id="SVGID_3_" x="-45.087" y="-656.422" width="1440" height="1024"/>
		</defs>
		<clipPath id="SVGID_4_">
			<use xlink:href="#SVGID_3_"  overflow="visible"/>
		</clipPath>
		<g clip-path="url(#SVGID_4_)" enable-background="new    ">
			<g>
				<defs>
					<rect id="SVGID_5_" x="0.913" y="0.579" width="37" height="46"/>
				</defs>
				<clipPath id="SVGID_6_">
					<use xlink:href="#SVGID_5_"  overflow="visible"/>
				</clipPath>
				<g clip-path="url(#SVGID_6_)">
					<defs>
						<rect id="SVGID_7_" x="-4.226" y="-4.005" width="47.278" height="55.08"/>
					</defs>
					<clipPath id="SVGID_8_">
						<use xlink:href="#SVGID_7_"  overflow="visible"/>
					</clipPath>
					<g clip-path="url(#SVGID_8_)">
						<defs>
							<rect id="SVGID_9_" x="0.913" y="0.579" width="37" height="46"/>
						</defs>
						<clipPath id="SVGID_10_">
							<use xlink:href="#SVGID_9_"  overflow="visible"/>
						</clipPath>
						<g clip-path="url(#SVGID_10_)">
							<rect x="-9.226" y="-9.005" fill="#48DAD0" width="57.278" height="65.08"/>
						</g>
					</g>
				</g>
			</g>
		</g>
	</g>
</g>
<g opacity="0.4462" enable-background="new    ">
	<g>
		<defs>
			<rect id="SVGID_11_" x="11.913" y="38.579" width="15" height="8"/>
		</defs>
		<clipPath id="SVGID_12_">
			<use xlink:href="#SVGID_11_"  overflow="visible"/>
		</clipPath>
		<g clip-path="url(#SVGID_12_)">
			<defs>
				<polygon id="SVGID_13_" points="26.572,38.758 19.388,45.981 12.243,38.758 				"/>
			</defs>
			<clipPath id="SVGID_14_">
				<use xlink:href="#SVGID_13_"  overflow="visible"/>
			</clipPath>
			<g clip-path="url(#SVGID_14_)">
				<defs>
					<rect id="SVGID_15_" x="11.913" y="38.579" width="15" height="8"/>
				</defs>
				<clipPath id="SVGID_16_">
					<use xlink:href="#SVGID_15_"  overflow="visible"/>
				</clipPath>
				<g clip-path="url(#SVGID_16_)" enable-background="new    ">
					<g>
						<defs>
							<rect id="SVGID_17_" x="11.913" y="38.579" width="15" height="8"/>
						</defs>
						<clipPath id="SVGID_18_">
							<use xlink:href="#SVGID_17_"  overflow="visible"/>
						</clipPath>
						<g clip-path="url(#SVGID_18_)">
							<defs>
								<rect id="SVGID_19_" x="-10.153" y="33.665" width="58.583" height="20.727"/>
							</defs>
							<clipPath id="SVGID_20_">
								<use xlink:href="#SVGID_19_"  overflow="visible"/>
							</clipPath>
							<g clip-path="url(#SVGID_20_)">
								<defs>
									<rect id="SVGID_21_" x="11.913" y="38.579" width="15" height="8"/>
								</defs>
								<clipPath id="SVGID_22_">
									<use xlink:href="#SVGID_21_"  overflow="visible"/>
								</clipPath>
								<rect x="-15.153" y="28.665" clip-path="url(#SVGID_22_)" fill="#0F1621" width="68.583" height="30.727"/>
							</g>
						</g>
					</g>
				</g>
			</g>
		</g>
	</g>
</g>
<g>
	<defs>
		<ellipse id="SVGID_23_" cx="19.414" cy="19.42" rx="5.139" ry="5.094"/>
	</defs>
	<clipPath id="SVGID_24_">
		<use xlink:href="#SVGID_23_"  overflow="visible"/>
	</clipPath>
	<g clip-path="url(#SVGID_24_)">
		<defs>
			<rect id="SVGID_25_" x="-45.087" y="-656.422" width="1440" height="1024"/>
		</defs>
		<clipPath id="SVGID_26_">
			<use xlink:href="#SVGID_25_"  overflow="visible"/>
		</clipPath>
		<g clip-path="url(#SVGID_26_)" enable-background="new    ">
			<g>
				<defs>
					<rect id="SVGID_27_" x="13.914" y="13.579" width="11" height="11"/>
				</defs>
				<clipPath id="SVGID_28_">
					<use xlink:href="#SVGID_27_"  overflow="visible"/>
				</clipPath>
				<g clip-path="url(#SVGID_28_)">
					<defs>
						<rect id="SVGID_29_" x="9.135" y="9.235" width="20.556" height="20.371"/>
					</defs>
					<clipPath id="SVGID_30_">
						<use xlink:href="#SVGID_29_"  overflow="visible"/>
					</clipPath>
					<g clip-path="url(#SVGID_30_)">
						<defs>
							<rect id="SVGID_31_" x="13.914" y="13.579" width="11" height="11"/>
						</defs>
						<clipPath id="SVGID_32_">
							<use xlink:href="#SVGID_31_"  overflow="visible"/>
						</clipPath>
						<g clip-path="url(#SVGID_32_)">
							<rect x="4.135" y="4.235" fill="#FFFFFF" width="30.556" height="30.371"/>
						</g>
					</g>
				</g>
			</g>
		</g>
	</g>
</g>
<g>
	<path fill="#FFFFFF" d="M19.473,47.315L4.914,32.594C1.731,28.971,0,24.371,0,19.6C0,8.792,8.748,0,19.5,0
		C30.252,0,39,8.792,39,19.6c0,4.755-1.72,9.353-4.843,12.947l-0.314,0.32c-0.345,0.379-0.749,0.785-1.173,1.175L19.473,47.315z
		 M19.5,2C9.851,2,2,9.895,2,19.6c0,4.286,1.554,8.417,4.376,11.631l13.101,13.244l11.807-11.874
		c0.412-0.381,0.775-0.746,1.11-1.113l0.299-0.302C35.455,28.005,37,23.873,37,19.6C37,9.895,29.15,2,19.5,2z"/>
</g>
<rect x="-7.368" y="37.578" fill="none" width="1440" height="1024"/>
</svg>
